<?xml version="1.0" standalone="no"?>
<!DOCTYPE svg PUBLIC "-//W3C//DTD SVG 20010904//EN"
 "http://www.w3.org/TR/2001/REC-SVG-20010904/DTD/svg10.dtd">
<svg version="1.0" xmlns="http://www.w3.org/2000/svg"
 width="250.000000pt" height="284.000000pt" viewBox="0 0 250.000000 284.000000"
 preserveAspectRatio="xMidYMid meet">

<g transform="translate(0.000000,284.000000) scale(0.100000,-0.100000)"
fill="#000000" stroke="none">
<path d="M1135 2680 c-19 -8 -19 -9 -1 -9 12 -1 -1 -11 -33 -27 -48 -24 -107
-82 -102 -99 2 -4 -10 -21 -26 -37 l-28 -31 30 19 30 18 -19 -22 c-11 -12 -15
-22 -10 -22 5 -1 -7 -15 -26 -33 -19 -18 -31 -29 -26 -24 24 18 25 4 3 -25
-13 -18 -32 -46 -41 -63 -17 -30 -17 -30 1 -5 24 32 66 78 60 65 -33 -75 -43
-93 -55 -107 -8 -10 -12 -18 -7 -18 4 0 2 -7 -5 -15 -7 -8 -9 -15 -5 -15 4 0
1 -7 -6 -16 -8 -10 11 -4 49 15 72 36 82 34 17 -5 -54 -31 -58 -40 -10 -20 45
19 44 13 -2 -15 -85 -51 -113 -80 -113 -116 0 -18 5 -33 12 -33 6 0 3 -9 -7
-20 -10 -11 -15 -20 -11 -20 4 0 -11 -24 -33 -52 -46 -62 -56 -93 -41 -133 9
-28 9 -29 -5 -11 -28 37 -19 89 28 159 43 64 44 66 36 124 -5 34 -4 62 2 67 5
6 9 17 9 24 0 8 15 47 34 86 52 110 53 102 -19 181 -63 69 -63 70 -84 51 -28
-26 -36 -15 -12 15 15 19 17 28 9 43 -8 15 -8 21 1 24 14 5 14 39 -1 48 -7 4
-8 3 -4 -5 12 -19 -14 -44 -30 -30 -10 8 -14 8 -14 1 0 -6 9 -16 20 -22 11 -6
20 -17 20 -26 0 -15 -28 -64 -43 -75 -4 -3 -3 -18 3 -34 6 -15 9 -29 7 -31 -2
-2 -17 28 -33 68 -38 94 -40 105 -9 43 14 -27 25 -44 25 -37 0 7 -5 23 -12 35
-6 12 -14 38 -17 57 -5 26 -12 36 -29 38 -28 4 -40 -23 -19 -46 8 -9 28 -48
43 -86 l28 -68 -29 -24 c-17 -13 -25 -24 -19 -24 5 0 15 5 22 12 20 20 26 -1
6 -23 -18 -19 -19 -20 -32 -2 -7 10 -27 44 -43 76 -18 36 -34 55 -41 51 -6 -4
-8 -3 -4 4 7 11 -22 82 -39 94 -5 4 -16 1 -24 -6 -11 -12 -9 -20 17 -53 16
-21 44 -66 62 -100 26 -50 30 -66 21 -77 -12 -14 -54 -19 -45 -5 6 11 -37 80
-46 74 -5 -3 -12 0 -16 6 -5 8 -3 9 6 4 8 -5 11 -3 8 6 -3 8 -10 13 -16 12 -6
-2 -9 3 -6 10 7 20 -21 51 -40 44 -22 -9 -20 -34 3 -46 11 -6 34 -34 52 -63
61 -100 72 -122 60 -126 -6 -2 -27 -24 -45 -48 -21 -27 -37 -40 -41 -34 -4 6
12 34 35 61 54 64 41 63 -19 -1 l-47 -50 26 -27 c14 -15 -5 -1 -41 32 -37 33
-69 67 -73 75 -4 8 14 -5 40 -30 64 -61 52 -37 -19 39 -44 48 -62 61 -77 56
-41 -13 -31 -83 11 -72 11 3 35 -14 68 -47 48 -49 50 -53 36 -73 l-16 -22 -54
34 c-54 35 -86 48 -49 20 10 -8 14 -15 7 -15 -14 0 -27 19 -28 39 0 8 -8 19
-18 25 -15 9 -21 7 -32 -7 -17 -24 -9 -47 16 -47 11 0 45 -17 77 -37 31 -21
58 -38 60 -39 8 -5 -59 -124 -69 -124 -7 0 -27 16 -45 36 -39 41 -67 42 -72 3
-3 -22 3 -28 42 -43 24 -9 49 -22 54 -29 15 -18 -32 -173 -68 -223 -58 -82
-61 -177 -10 -291 40 -89 44 -116 25 -168 -22 -58 -16 -135 15 -201 32 -66
107 -139 158 -155 23 -6 43 -18 46 -25 7 -19 -23 -46 -46 -41 -10 3 -16 1 -12
-4 9 -16 34 -10 59 15 l24 24 26 -28 c17 -18 23 -30 16 -34 -6 -4 -11 -12 -11
-18 0 -7 6 -6 15 2 12 10 24 5 67 -32 124 -104 281 -191 425 -234 120 -36 310
-44 446 -20 199 36 399 143 567 302 l89 85 3 -33 c2 -27 7 -33 27 -33 13 0 26
6 29 13 2 6 -1 12 -7 12 -6 0 -11 -4 -11 -10 0 -5 -4 -10 -10 -10 -5 0 -10 13
-10 28 0 23 7 31 39 46 54 23 135 114 155 172 20 60 21 144 1 191 -17 41 -15
55 26 138 37 77 50 146 38 208 -11 59 -23 83 -64 127 -32 35 -72 138 -57 151
18 17 82 30 99 20 26 -13 53 4 53 34 0 42 -26 45 -102 12 -37 -16 -69 -28 -71
-26 -1 2 -17 39 -34 81 l-31 77 21 14 c43 28 112 61 123 59 17 -3 37 26 30 43
-10 28 -37 29 -59 3 -12 -14 -48 -40 -79 -57 l-58 -32 -12 26 c-11 24 -10 28
7 38 11 7 29 14 39 17 33 9 43 37 21 57 -11 11 -14 12 -8 3 7 -10 8 -21 3 -30
-7 -11 -11 -11 -24 -1 -12 11 -14 17 -5 27 9 11 9 14 0 14 -6 0 -14 -8 -18
-17 -16 -47 -55 -67 -67 -36 -8 20 27 59 61 68 18 4 23 11 21 27 -2 12 -9 23
-16 24 -7 1 -8 0 -2 -3 15 -7 12 -33 -3 -33 -7 0 -19 6 -26 13 -11 10 -13 9
-8 -4 3 -11 -9 -30 -36 -55 l-42 -39 40 43 c40 43 39 59 -2 20 -17 -15 -26
-19 -34 -11 -14 14 70 86 109 93 30 6 42 41 22 66 -22 25 -42 15 -98 -46 -41
-46 -57 -58 -67 -50 -10 8 -15 8 -20 0 -14 -23 -42 20 -47 70 -9 87 -98 170
-227 210 -76 24 -111 25 -180 4 l-53 -15 18 -27 c22 -33 54 -98 54 -109 0 -4
-16 21 -35 56 -19 35 -42 73 -52 85 -18 20 -17 20 2 7 11 -7 5 0 -14 17 -33
30 -120 60 -139 48 -6 -3 -26 1 -46 9 -39 16 -80 18 -111 5z m531 -86 c96 -31
102 -34 102 -60 0 -21 -3 -23 -17 -12 -13 10 -12 8 2 -8 22 -27 22 -42 -1 -21
-11 10 -23 13 -31 8 -8 -5 -28 -5 -45 0 -17 5 -38 9 -46 8 -8 0 17 -9 55 -20
105 -30 101 -40 -5 -13 -51 13 -106 25 -124 25 -29 2 -28 2 9 9 l40 7 -41 2
c-33 1 -45 7 -58 26 -16 24 -16 25 6 26 22 1 22 1 -2 8 l-25 7 29 8 c16 4 43
4 60 1 23 -5 27 -4 16 4 -24 17 17 14 76 -5z m-1046 -4 c0 -5 -4 -10 -9 -10
-6 0 -13 5 -16 10 -3 6 1 10 9 10 9 0 16 -4 16 -10z m-130 -41 c0 -5 -7 -9
-15 -9 -15 0 -20 12 -9 23 8 8 24 -1 24 -14z m669 16 c-9 -8 -79 -35 -79 -30
0 7 53 34 69 35 8 0 12 -2 10 -5z m-134 -15 c-3 -5 -11 -10 -16 -10 -6 0 -7 5
-4 10 3 6 11 10 16 10 6 0 7 -4 4 -10z m105 -25 c-14 -8 -29 -14 -35 -14 -5 0
1 6 15 14 14 8 30 14 35 14 6 0 -1 -6 -15 -14z m255 -13 c-2 -9 -7 -27 -12
-40 l-9 -23 -19 22 -20 22 25 -8 c24 -7 25 -7 5 9 -20 17 -20 17 5 11 23 -6
24 -5 7 8 -13 11 -15 16 -5 20 19 6 27 -1 23 -21z m414 -70 c1 -36 -3 -61 -8
-57 -5 3 -9 40 -9 83 0 51 3 70 8 57 5 -11 9 -48 9 -83z m31 62 c0 -8 3 -13 8
-13 19 3 30 -2 36 -18 6 -14 3 -14 -15 3 l-22 19 6 -65 5 -65 -17 65 c-9 36
-21 76 -26 90 -7 22 -6 23 9 11 9 -7 16 -20 16 -27z m-1316 0 c3 -8 2 -12 -4
-9 -6 3 -10 10 -10 16 0 14 7 11 14 -7z m645 2 c10 -12 6 -21 -18 -48 -17 -18
-31 -27 -31 -20 0 7 -5 10 -11 6 -8 -4 -8 0 0 15 9 16 9 21 -1 21 -13 1 28 40
42 40 4 0 13 -6 19 -14z m-399 -24 c0 -5 -13 -21 -29 -36 -21 -20 -31 -24 -37
-15 -4 8 3 21 20 36 28 23 46 30 46 15z m-330 -12 c0 -5 -4 -10 -10 -10 -5 0
-10 5 -10 10 0 6 5 10 10 10 6 0 10 -4 10 -10z m1178 3 c-10 -2 -28 -2 -40 0
-13 2 -5 4 17 4 22 1 32 -1 23 -4z m-828 -45 c0 -18 -5 -40 -10 -48 -7 -11
-10 -2 -10 33 0 26 5 47 10 47 6 0 10 -15 10 -32z m508 1 c9 -17 27 -47 40
-66 13 -20 22 -37 20 -38 -2 -1 -22 -12 -45 -24 -49 -24 -61 -40 -42 -52 12
-7 11 -9 -1 -9 -12 -1 -11 -3 3 -11 9 -6 15 -14 12 -20 -4 -5 -1 -9 4 -9 6 0
11 3 11 8 0 4 20 7 45 6 25 0 48 3 51 8 9 15 44 8 64 -12 16 -16 20 -33 20
-82 0 -78 -13 -124 -44 -163 l-25 -30 25 50 c16 34 26 74 29 120 3 46 2 60 -3
40 -5 -16 -14 -40 -20 -52 -7 -12 -12 -37 -12 -55 0 -48 -47 -136 -84 -159
-43 -26 -95 -24 -134 4 -32 24 -92 94 -92 107 0 4 -13 24 -30 45 -16 21 -30
47 -31 59 0 11 -3 15 -6 9 -9 -23 27 -110 64 -153 25 -29 30 -38 15 -29 -13 8
-34 30 -48 50 -28 41 -58 140 -45 149 5 3 11 14 13 25 2 11 10 19 17 17 7 -1
19 2 25 8 7 5 29 11 49 12 20 2 37 6 37 10 0 4 7 5 15 1 14 -5 13 0 -2 31 -11
24 -26 39 -43 42 -50 11 -50 11 -39 43 6 17 36 57 67 90 67 70 94 77 120 30z
m437 16 c38 -12 39 -14 16 -21 -23 -7 -24 -8 -5 -15 12 -5 0 -8 -36 -7 -53 1
-114 15 -80 18 8 1 4 6 -10 11 -20 8 -22 12 -10 19 21 13 77 11 125 -5z m159
-35 l7 -25 -15 25 c-17 28 -21 50 -7 35 5 -6 12 -21 15 -35z m-1044 -15 c19
-19 32 -35 29 -35 -3 0 -20 16 -39 35 -19 19 -32 35 -29 35 3 0 20 -16 39 -35z
m330 15 c-6 -11 -20 -25 -33 -31 -18 -10 -17 -6 7 20 34 36 41 39 26 11z
m-440 -17 c-1 -24 -2 -26 -11 -10 -5 9 -7 22 -4 27 10 17 15 11 15 -17z m1417
11 c3 -8 1 -20 -4 -25 -14 -14 -43 0 -43 22 0 24 38 26 47 3z m-1311 -36 l29
-33 -32 29 c-31 28 -38 36 -30 36 2 0 16 -15 33 -32z m-346 2 c6 -11 8 -20 6
-20 -3 0 -10 9 -16 20 -6 11 -8 20 -6 20 3 0 10 -9 16 -20z m1203 13 c-7 -2
-19 -2 -25 0 -7 3 -2 5 12 5 14 0 19 -2 13 -5z m-101 -62 c26 -32 43 -63 39
-70 -5 -7 -16 4 -30 29 -12 22 -34 53 -48 70 -13 16 -21 30 -15 30 5 0 29 -26
54 -59z m478 30 c0 -5 -24 -28 -52 -52 l-53 -43 50 52 c52 55 55 57 55 43z
m-343 -7 c-3 -3 -12 -4 -19 -1 -8 3 -5 6 6 6 11 1 17 -2 13 -5z m-1137 -23 c0
-13 -29 -35 -37 -28 -7 8 15 37 28 37 5 0 9 -4 9 -9z m-305 -22 c0 -8 -10 -15
-22 -17 -25 -4 -30 7 -11 26 15 15 33 10 33 -9z m1654 12 c7 -5 10 -14 6 -20
-5 -9 -10 -9 -21 0 -26 22 -14 38 15 20z m-550 -20 c12 -8 8 -11 -15 -16 -16
-4 -41 -11 -56 -15 -39 -12 -35 -4 10 19 43 24 43 23 61 12z m-784 -11 c3 -5
1 -10 -4 -10 -6 0 -11 5 -11 10 0 6 2 10 4 10 3 0 8 -4 11 -10z m1064 -79 c0
-14 -1 -14 -6 -1 -3 8 -10 24 -15 35 -9 20 -9 20 6 1 9 -11 16 -27 15 -35z
m342 36 c-1 -12 -15 -9 -19 4 -3 6 1 10 8 8 6 -3 11 -8 11 -12z m-893 -4 c-10
-2 -26 -2 -35 0 -10 3 -2 5 17 5 19 0 27 -2 18 -5z m-898 -32 c0 -5 -7 -11
-15 -15 -9 -3 -15 0 -15 9 0 8 7 15 15 15 8 0 15 -4 15 -9z m311 -8 c13 -15
12 -15 -8 -4 -24 12 -29 21 -14 21 5 0 15 -7 22 -17z m1567 -11 c22 19 42 31
42 24 0 -3 -21 -20 -47 -37 -27 -18 -43 -26 -36 -18 10 12 8 17 -8 27 -11 7
-17 18 -13 24 5 7 13 3 26 -12 17 -20 20 -21 36 -8z m216 20 c2 -4 -4 -9 -15
-9 -11 -1 -17 2 -14 8 7 11 22 12 29 1z m-1639 -20 c-16 -11 -37 -27 -45 -37
-12 -15 -8 -15 18 4 17 12 32 17 32 11 0 -6 5 -8 13 -4 9 6 9 5 0 -7 -7 -9
-38 -21 -69 -28 -39 -9 -68 -24 -95 -48 -42 -38 -51 -28 -20 24 28 45 119 95
186 102 6 0 -3 -7 -20 -17z m1208 -5 c44 -19 95 -63 114 -101 l16 -31 -24 20
c-13 11 -29 27 -36 35 -7 8 -13 12 -13 8 0 -4 -11 -3 -25 2 -37 14 -30 6 23
-29 27 -17 59 -43 73 -57 27 -31 15 -25 -54 24 -44 32 -120 62 -155 62 -8 0 3
-13 26 -30 23 -16 46 -39 52 -50 14 -26 -4 -27 -23 0 -7 11 -45 40 -82 65 -72
47 -77 54 -22 32 19 -8 40 -11 52 -6 18 7 18 8 2 8 -10 1 -15 6 -12 11 3 6 -1
13 -9 16 -9 3 -16 10 -16 16 0 5 4 6 10 3 5 -3 18 -1 27 4 24 14 38 13 76 -2z
m387 -5 c0 -5 -42 -30 -92 -56 -51 -26 -84 -40 -74 -32 16 13 17 16 4 16 -18
0 -33 29 -20 42 5 5 14 -3 22 -17 7 -14 16 -25 19 -25 3 0 35 18 71 39 77 46
70 43 70 33z m-1949 -49 l41 -27 18 24 c20 26 35 24 24 -4 -3 -9 -13 -16 -21
-16 -13 0 -13 -2 -2 -17 12 -15 10 -15 -16 1 -63 40 -99 66 -92 66 4 0 26 -12
48 -27z m449 14 c0 -2 -25 -21 -56 -42 -30 -21 -64 -49 -75 -63 -10 -14 -19
-20 -19 -14 0 6 5 14 10 17 6 3 10 11 10 17 0 7 -13 -1 -30 -17 -16 -16 -30
-23 -30 -16 0 17 54 65 58 51 3 -7 16 -2 35 13 40 30 97 62 97 54z m161 -24
c-5 -10 -21 -29 -36 -43 -29 -26 -69 -95 -71 -120 0 -9 -6 -25 -13 -37 -13
-25 -15 -73 -2 -73 4 0 6 10 4 23 -2 12 2 31 10 42 14 19 15 18 10 -10 l-5
-30 25 30 c38 45 45 21 8 -26 l-33 -40 36 15 c60 25 40 8 -29 -25 -87 -41
-113 -76 -111 -151 1 -38 -1 -52 -7 -42 -5 9 -7 33 -3 53 4 25 2 31 -4 21 -5
-8 -10 -35 -10 -61 0 -25 -5 -50 -12 -57 -10 -10 -17 -73 -18 -175 0 -17 -4
-26 -10 -22 -6 4 -8 22 -4 43 4 20 4 35 1 32 -8 -8 -38 -191 -38 -236 -1 -22
-5 -47 -10 -55 -6 -10 -9 -6 -9 16 0 17 -4 36 -8 42 -4 7 -7 -11 -6 -40 1 -28
-3 -60 -8 -70 -6 -12 -6 -23 2 -32 8 -10 8 -19 1 -33 -9 -16 -7 -18 19 -14 34
5 56 38 90 131 13 34 28 61 35 61 8 0 11 -8 8 -19 -3 -12 8 -29 38 -55 23 -20
37 -36 31 -36 -7 0 -12 -6 -13 -12 0 -7 -9 -31 -20 -53 l-19 -40 4 50 5 50
-24 -65 c-27 -71 -32 -99 -11 -61 13 23 14 23 24 5 8 -15 7 -23 -6 -38 -10
-11 -11 -16 -4 -12 11 7 12 4 3 -11 -6 -11 -8 -23 -5 -26 3 -3 1 -8 -5 -11 -6
-4 -14 8 -20 26 l-9 33 -1 -31 c-1 -17 -8 -38 -17 -45 -9 -7 -20 -22 -24 -34
-9 -20 -9 -20 -9 0 0 11 6 31 14 45 8 14 14 36 15 50 0 15 6 32 13 39 10 11 8
11 -11 2 -17 -9 -21 -18 -17 -32 4 -12 0 -31 -10 -45 -16 -24 -17 -25 -30 -7
-14 17 -14 16 -15 -7 0 -20 -2 -22 -10 -10 -7 11 -10 1 -10 -35 0 -36 -3 -46
-10 -35 -5 8 -10 32 -10 53 0 26 -4 37 -15 37 -20 0 -28 39 -21 102 3 29 8 93
10 142 5 106 9 140 43 316 29 159 42 193 88 240 18 19 51 55 73 80 38 43 39
47 35 100 -5 50 -2 59 22 88 15 18 21 32 14 32 -8 0 -7 5 4 18 8 9 16 21 16
25 0 8 88 87 97 87 3 0 0 -8 -5 -17z m-300 -18 c-35 -13 -79 -38 -98 -57 l-34
-33 53 -6 c50 -6 174 -47 166 -55 -2 -2 -32 6 -67 16 -83 26 -136 26 -169 -1
l-27 -21 -3 20 c-5 32 12 56 71 96 57 39 118 65 152 65 11 0 -9 -11 -44 -24z
m1153 -22 c19 -9 33 -20 30 -25 -3 -4 2 -8 10 -8 9 0 14 -8 13 -20 -1 -11 -7
-20 -15 -20 -7 0 -10 -4 -7 -10 10 -15 -49 -12 -71 4 -18 14 -18 15 6 25 15 6
19 10 9 10 -9 1 -22 7 -28 15 -9 11 -8 15 4 20 9 3 13 10 10 16 -9 14 -1 13
39 -7z m106 -3 c46 -23 52 -31 40 -50 -8 -12 -18 -7 -52 28 -48 47 -45 51 12
22z m-1520 -5 c0 -18 -62 -125 -73 -125 -6 0 -1 -10 13 -21 l25 -21 -25 14
c-70 40 -101 61 -96 65 3 3 19 -5 36 -17 26 -19 34 -20 41 -9 5 8 9 18 9 23 0
16 51 96 60 96 6 0 10 -2 10 -5z m360 1 c0 -2 -9 -6 -20 -9 -11 -3 -18 -1 -14
4 5 9 34 13 34 5z m1441 -61 c16 -35 29 -71 29 -80 0 -34 -18 -11 -46 57 -16
40 -30 76 -32 80 -2 5 1 8 8 8 6 0 24 -29 41 -65z m-1458 28 c-7 -2 -19 -2
-25 0 -7 3 -2 5 12 5 14 0 19 -2 13 -5z m-523 -17 c0 -2 -7 -6 -15 -10 -8 -3
-15 -1 -15 4 0 6 7 10 15 10 8 0 15 -2 15 -4z m1307 -18 c-3 -8 -6 -5 -6 6 -1
11 2 17 5 13 3 -3 4 -12 1 -19z m499 -7 c-3 -4 -31 -11 -63 -13 -32 -3 -93
-19 -135 -36 -43 -16 -78 -28 -78 -26 0 5 98 54 140 70 39 14 144 19 136 5z
m-1616 -16 c11 -13 10 -14 -4 -9 -9 3 -16 10 -16 15 0 13 6 11 20 -6z m1595
-15 c-3 -5 -14 -10 -24 -10 -12 0 -22 -12 -29 -38 -6 -20 -18 -46 -26 -57 -11
-15 -10 -3 5 42 12 37 27 64 37 66 31 8 43 7 37 -3z m405 -17 c0 -12 -3 -13
-13 -4 -8 6 -17 8 -20 4 -4 -3 -7 -2 -7 4 0 15 11 22 26 16 8 -3 14 -12 14
-20z m-1792 -20 c15 -50 9 -52 -11 -3 -8 22 -12 40 -8 40 4 0 13 -17 19 -37z
m1308 22 c-12 -9 -15 -15 -7 -15 11 0 11 -3 1 -16 -22 -25 -48 -35 -76 -28
l-27 7 29 13 29 14 -30 -6 c-39 -7 -25 6 28 28 54 22 80 23 53 3z m-399 -27
c-3 -8 -6 -5 -6 6 -1 11 2 17 5 13 3 -3 4 -12 1 -19z m793 6 c-62 -27 -164
-65 -157 -58 14 14 152 72 172 73 13 0 8 -5 -15 -15z m-1810 -88 c6 -26 5 -35
-2 -28 -14 14 -30 102 -20 116 4 6 8 -2 10 -19 2 -16 7 -47 12 -69z m1480 82
c0 -7 -5 -20 -10 -28 -8 -12 -10 -9 -10 13 0 15 5 27 10 27 6 0 10 -6 10 -12z
m-1684 -72 c-22 -64 -21 -67 19 -50 37 15 155 31 155 21 0 -4 -17 -14 -37 -22
-21 -9 -57 -35 -80 -58 -46 -44 -57 -39 -22 9 12 16 1 7 -23 -20 -31 -34 -47
-46 -52 -37 -6 9 -11 9 -21 1 -24 -20 -29 10 -6 34 12 12 21 28 21 36 0 7 9
44 21 83 14 46 24 66 31 59 6 -6 4 -25 -6 -56z m1390 -19 c13 -16 24 -34 24
-40 0 -18 -48 43 -65 82 -20 44 -18 54 2 16 9 -16 27 -43 39 -58z m-626 53 c0
-5 -5 -10 -11 -10 -5 0 -7 5 -4 10 3 6 8 10 11 10 2 0 4 -4 4 -10z m1189 -47
c6 -21 11 -43 11 -49 0 -5 16 -26 36 -45 21 -20 33 -41 31 -51 -3 -11 0 -15 9
-11 27 10 13 -12 -19 -31 -97 -57 -121 -68 -196 -86 -103 -26 -140 -15 -60 18
28 12 58 22 65 22 8 0 14 3 14 6 0 13 -63 95 -80 104 -11 6 -20 15 -20 21 0 6
7 6 20 -1 15 -8 18 -8 14 3 -3 8 2 17 11 21 9 3 13 10 10 16 -3 5 1 10 9 10 9
0 16 7 16 16 0 13 8 15 43 12 23 -3 51 -8 61 -13 16 -7 18 -5 13 9 -15 40 -19
66 -9 66 6 0 16 -17 21 -37z m-1417 -50 c-6 -9 -18 -18 -28 -19 -16 -2 -15 0
5 17 29 23 35 24 23 2z m735 -10 c12 -17 12 -22 1 -29 -7 -4 -10 -3 -5 1 4 5
-3 20 -15 33 -13 14 -17 23 -9 20 8 -2 21 -14 28 -25z m-137 -48 c0 -5 7 -23
15 -39 10 -18 12 -33 6 -40 -5 -6 -9 -15 -8 -21 0 -5 -47 -49 -106 -98 -59
-48 -107 -83 -107 -78 0 6 16 22 36 38 20 15 31 29 25 31 -13 4 -5 22 10 22 6
0 7 -4 4 -10 -3 -5 -4 -10 0 -10 10 0 135 103 130 108 -2 2 -28 -16 -58 -41
-39 -34 -59 -45 -75 -40 -15 3 -24 0 -28 -11 -13 -34 -25 -15 -19 32 12 88 16
99 40 110 14 7 39 35 57 63 l32 52 23 -29 c12 -16 23 -33 23 -39z m-574 42
c-10 -7 -27 -24 -38 -38 -11 -13 -16 -17 -12 -9 11 24 46 60 58 60 5 0 2 -6
-8 -13z m-445 -32 c-17 -19 -38 -50 -48 -68 -13 -25 -18 -28 -21 -14 -2 9 -8
15 -13 11 -5 -3 -6 -10 -3 -16 5 -8 1 -9 -10 -5 -10 4 -20 7 -22 7 -2 0 -4 4
-4 10 0 5 6 7 13 5 6 -2 21 10 32 27 19 31 78 78 98 78 5 0 -5 -16 -22 -35z
m494 15 c-20 -22 -31 -20 -22 5 4 8 14 15 23 15 16 0 16 -2 -1 -20z m884 -44
c70 -37 113 -110 126 -216 5 -41 4 -40 -10 13 -8 31 -21 70 -29 86 -27 51
-102 108 -181 136 -41 15 -73 31 -70 35 5 8 114 -28 164 -54z m-254 38 c14 -6
14 -8 -1 -25 -22 -24 -7 -25 20 -1 20 16 20 16 7 -1 -8 -10 -28 -28 -45 -39
l-31 -22 20 24 c17 20 18 23 3 17 -10 -4 -18 -2 -18 3 0 6 5 10 11 10 5 0 7 5
4 10 -3 6 -3 15 0 20 7 12 8 12 30 4z m-1082 -16 c-51 -67 -77 -97 -80 -94
-12 12 60 106 80 106 6 0 6 -5 0 -12z m36 -5 c-42 -55 -79 -91 -79 -78 0 8 19
33 41 55 43 42 61 52 38 23z m474 -35 c-13 -12 -25 -19 -28 -16 -3 3 1 13 10
22 9 9 22 16 28 16 6 0 2 -10 -10 -22z m727 1 c0 7 5 9 11 5 6 -3 9 -15 6 -25
-7 -26 10 -24 18 2 5 15 10 18 18 10 6 -6 21 -11 32 -11 34 0 96 -84 80 -109
-4 -7 -1 -10 7 -9 9 2 13 -10 13 -44 0 -25 3 -44 8 -41 4 2 7 1 7 -4 1 -4 3
-60 6 -123 4 -113 4 -115 -14 -93 -19 21 -19 20 -17 -79 4 -154 -16 -96 -25
72 0 12 -4 11 -15 -4 -9 -12 -18 -16 -24 -10 -8 8 -19 82 -26 167 -1 15 -5 30
-8 33 -3 4 -4 -52 -2 -122 4 -142 -11 -143 -19 -2 -2 46 -7 94 -10 108 -3 14
-9 39 -12 55 l-7 30 -13 -30 c-7 -16 -11 -44 -8 -61 5 -29 4 -31 -19 -29 -19
2 -27 -3 -31 -20 -3 -13 -3 -31 0 -39 3 -9 2 -16 -4 -16 -11 0 -22 23 -22 46
0 9 5 12 10 9 6 -4 5 5 -2 19 -14 32 -19 28 -20 -13 -1 -18 -5 -34 -10 -37 -5
-3 -9 0 -7 7 3 27 -1 39 -15 39 -16 0 -26 21 -26 53 0 16 -3 18 -9 8 -7 -11
-11 -10 -19 4 -7 14 -1 37 29 99 22 44 39 91 39 105 1 26 1 26 17 6 l16 -20
-7 20 c-22 61 18 74 41 14 l13 -34 -6 45 c-5 42 -4 44 11 26 8 -11 15 -14 15
-7z m-113 -39 c-8 -68 -54 -153 -80 -146 -15 4 -16 2 -6 -10 11 -13 9 -14 -17
-3 -37 16 -60 36 -51 45 4 4 17 -1 29 -12 l23 -19 -20 24 c-14 17 -16 25 -7
28 6 3 12 11 12 19 0 13 106 124 118 124 3 0 2 -23 -1 -50z m483 40 c10 -5 29
-24 41 -41 18 -26 19 -33 8 -40 -21 -13 -23 -12 -65 26 -30 27 -34 35 -19 35
18 0 18 0 -1 15 -18 13 -18 14 -1 15 10 0 27 -4 37 -10z m-1699 -75 c107 -30
138 -44 99 -45 -31 0 -112 22 -165 45 -22 10 -52 21 -67 26 -24 6 -28 5 -28
-14 0 -12 -2 -38 -4 -57 -2 -19 -4 -48 -5 -65 -1 -27 -3 -28 -12 -11 -13 21
-7 123 10 184 1 1 18 -6 39 -17 22 -11 81 -32 133 -46z m1674 9 c15 -14 24
-28 21 -32 -4 -3 -21 8 -39 26 -37 38 -22 44 18 6z m325 -16 l-1 -43 -18 35
c-14 25 -16 37 -8 42 22 14 27 8 27 -34z m-1150 -69 c25 -22 38 -37 30 -33
-19 10 -160 125 -160 131 0 7 83 -55 130 -98z m796 69 l29 -33 -32 29 c-31 28
-38 36 -30 36 2 0 16 -15 33 -32z m-966 6 c0 -8 -5 -12 -10 -9 -6 4 -8 11 -5
16 9 14 15 11 15 -7z m1284 -16 c3 -13 6 -32 6 -42 0 -18 -1 -18 -20 -1 -20
18 -26 46 -13 58 12 12 21 7 27 -15z m-44 -30 c12 -13 29 -36 37 -53 15 -30
15 -30 -16 5 -51 57 -69 99 -21 48z m-1544 -18 c-1 -16 -5 -30 -10 -30 -5 0
-6 -19 -2 -42 5 -33 4 -40 -5 -31 -15 15 -15 83 0 111 16 29 18 28 17 -8z
m669 -10 c-10 -11 -20 -18 -23 -15 -3 3 3 14 13 25 10 11 20 18 23 15 3 -3 -3
-14 -13 -25z m-1156 -17 c-18 -21 -38 -42 -43 -48 -17 -19 8 20 33 52 14 18
30 33 35 33 6 0 -6 -17 -25 -37z m932 10 c13 -16 12 -17 -3 -4 -10 7 -18 15
-18 17 0 8 8 3 21 -13z m959 4 c0 -2 -14 -16 -32 -33 l-31 -29 23 33 c20 27
40 42 40 29z m99 -40 c0 -21 -1 -21 -9 -2 -8 18 -9 18 -10 -5 -2 -18 -4 -20
-7 -7 -6 24 4 50 17 42 5 -3 10 -16 9 -28z m-799 -10 c38 -19 52 -34 90 -103
25 -44 56 -95 69 -113 22 -31 22 -56 0 -34 -6 6 -18 9 -25 6 -18 -7 -91 22
-130 52 -18 14 -53 27 -83 31 -59 8 -65 18 -18 29 l32 7 -37 10 c-50 13 -48
25 5 36 l42 9 -43 7 c-55 10 -50 29 9 37 24 3 37 7 28 7 -20 2 -42 26 -32 35
12 13 48 6 93 -16z m717 -9 c-3 -7 -5 -2 -5 12 0 14 2 19 5 13 2 -7 2 -19 0
-25z m-1327 -5 c-19 -34 -60 -78 -60 -66 0 12 57 83 66 83 3 0 0 -8 -6 -17z
m365 -14 c19 -17 35 -38 35 -48 -1 -14 -2 -14 -13 -1 -21 27 -71 47 -106 43
-42 -4 -50 -10 -25 -19 72 -26 87 -35 76 -46 -9 -9 -25 -8 -67 4 -30 8 -55 12
-55 7 0 -4 20 -20 45 -35 72 -42 52 -59 -36 -29 l-44 15 39 -34 c48 -42 34
-54 -36 -30 -45 15 -53 15 -62 2 -6 -8 -29 -18 -51 -22 -54 -10 -74 -23 -85
-52 -5 -13 -14 -24 -20 -24 -14 0 -12 45 4 85 8 18 12 36 9 38 -8 9 27 62 50
76 14 9 11 1 -11 -25 -69 -84 -25 -60 101 55 l77 71 70 0 c63 0 72 -3 105 -31z
m-469 -66 c-8 -15 -15 -22 -16 -15 0 14 22 53 28 47 2 -2 -3 -16 -12 -32z
m1201 15 c-3 -8 -6 -5 -6 6 -1 11 2 17 5 13 3 -3 4 -12 1 -19z m-1437 2 c-13
-9 -13 -10 0 -10 8 -1 3 -7 -12 -16 -30 -16 -39 -31 -10 -16 9 5 31 12 47 16
18 4 0 -10 -45 -34 -78 -42 -118 -47 -85 -10 17 19 17 19 -9 7 -14 -7 -26 -15
-26 -18 0 -3 36 -25 79 -50 44 -24 78 -46 76 -47 -5 -6 -93 35 -125 58 -37 27
-39 23 -42 -95 -3 -85 -4 -88 -17 -60 -11 26 -11 43 1 120 9 50 14 92 12 93
-7 9 -26 -80 -32 -153 l-7 -80 -5 81 -5 80 -24 -30 c-14 -17 -18 -25 -11 -18
8 6 18 12 23 12 10 0 -1 -80 -14 -96 -5 -6 -6 -13 -3 -17 3 -3 0 -16 -6 -29
-11 -22 -11 -22 10 2 19 22 20 22 11 3 -6 -12 -11 -34 -11 -50 -1 -27 -1 -27
-23 12 -26 50 -28 151 -3 190 9 14 15 26 14 27 -1 2 4 13 10 25 14 26 94 81
140 97 42 14 112 19 92 6z m1694 -30 c41 -22 55 -66 54 -170 l-1 -85 -7 85
c-7 79 -30 160 -45 160 -3 0 -4 -4 -1 -9 13 -21 25 -149 17 -181 -8 -30 -9
-23 -10 42 -1 84 -11 121 -43 156 -21 21 -45 31 -34 13 4 -5 0 -11 -6 -13 -8
-3 -3 -10 12 -18 23 -12 24 -12 11 3 -7 10 -9 17 -3 17 5 0 15 -7 22 -15 9
-11 9 -15 1 -15 -7 0 -9 -4 -6 -10 4 -6 -1 -7 -11 -3 -12 4 -15 3 -10 -6 5 -7
-15 -1 -44 14 -29 14 -50 29 -47 31 3 3 14 1 25 -5 30 -16 40 -13 17 5 -20 16
-19 16 4 9 15 -5 21 -3 17 3 -16 26 35 22 88 -8z m-1658 -35 c-11 -8 -27 -15
-35 -16 -9 -1 -5 -4 8 -8 23 -6 23 -7 6 -24 -22 -23 -67 -19 -71 6 -2 13 10
24 39 38 52 23 81 25 53 4z m1164 5 c0 -5 -5 -10 -11 -10 -5 0 -7 5 -4 10 3 6
8 10 11 10 2 0 4 -4 4 -10z m376 -16 c19 -15 19 -15 -1 -6 -11 5 -27 12 -35
15 -13 5 -13 6 1 6 8 1 24 -6 35 -15z m212 -39 c-3 -3 -13 1 -22 10 -9 9 -16
22 -16 28 0 6 10 2 22 -10 12 -13 19 -25 16 -28z m-1602 0 c0 -19 -3 -35 -8
-35 -10 0 -11 54 -1 63 3 4 7 7 7 7 1 0 1 -16 2 -35z m1374 15 c-12 -8 -10
-10 10 -11 14 0 19 -3 12 -6 -18 -7 -44 5 -37 17 3 5 12 10 18 10 7 0 6 -4 -3
-10z m119 -4 c-9 -9 -129 -66 -129 -62 0 8 124 75 129 70 2 -2 2 -6 0 -8z
m-1696 -88 l22 -18 -30 0 c-26 -1 -27 -3 -10 -10 11 -5 16 -9 10 -10 -5 -1 -1
-5 10 -10 17 -7 16 -9 -10 -9 -22 -1 -26 -4 -16 -10 12 -8 9 -11 -13 -17 -22
-5 -33 -2 -52 19 -16 17 -20 27 -11 30 7 4 6 6 -4 6 -12 1 -16 14 -18 52 l-2
51 50 -29 c28 -15 61 -36 74 -45z m1817 42 c11 -11 20 -30 20 -42 l0 -21 -25
23 c-14 13 -23 26 -20 28 3 3 0 11 -6 19 -19 22 8 16 31 -7z m-130 -10 c11 -7
3 -10 -30 -9 -34 0 -40 2 -25 9 27 12 37 12 55 0z m-469 -46 c24 -53 18 -93
-8 -59 -15 20 -15 20 -9 -2 17 -63 16 -66 -8 -28 -43 69 -46 71 -25 22 11 -26
18 -53 16 -60 -3 -7 -9 -1 -15 13 -6 14 -22 40 -36 59 l-26 34 38 33 c20 18
41 33 45 34 4 0 17 -21 28 -46z m-1007 17 c-5 -3 -12 -10 -15 -14 -4 -4 -9 -1
-13 8 -3 9 -2 13 4 10 6 -3 10 -1 10 5 0 6 5 8 11 4 6 -3 7 -9 3 -13z m885
-45 c14 -14 22 -28 20 -31 -3 -2 -27 19 -55 47 -34 35 -40 45 -19 31 17 -12
41 -33 54 -47z m-559 51 c0 -1 -37 -38 -82 -82 -44 -44 -72 -66 -61 -50 31 45
143 149 143 132z m1145 -7 c-11 -5 -40 -9 -65 -9 -34 0 -40 3 -25 9 11 5 40 9
65 9 34 0 40 -3 25 -9z m143 -23 c25 -23 28 -58 7 -102 l-13 -30 -1 28 c-1 16
-6 38 -13 50 -11 21 -10 21 8 7 18 -15 18 -14 1 13 -10 15 -14 27 -11 27 4 0
-1 10 -12 22 -22 25 -1 16 34 -15z m-478 2 c0 6 4 11 8 11 14 0 -1 -73 -16
-78 -6 -2 -12 5 -12 15 0 10 -3 29 -7 43 -6 22 -5 24 10 11 11 -9 17 -10 17
-2z m81 -29 c-8 -35 -8 -35 -18 -10 -11 27 -7 44 8 35 5 -4 9 -1 9 6 0 7 2 10
4 8 3 -2 1 -20 -3 -39z m241 26 c-18 -6 -30 -15 -26 -19 4 -4 -2 -7 -14 -7
-32 0 -36 19 -5 26 15 3 33 7 38 9 29 10 35 2 7 -9z m-553 -107 c15 -42 -5
-27 -30 24 -22 42 -22 42 -1 24 11 -11 25 -32 31 -48z m-384 20 c45 -11 99
-55 108 -88 3 -15 0 -17 -17 -13 -11 3 -28 15 -38 26 l-17 21 6 -22 c7 -28 4
-28 -77 0 -71 24 -118 52 -107 63 6 6 51 17 90 23 5 0 28 -4 52 -10z m682 -11
c-3 -8 -6 -5 -6 6 -1 11 2 17 5 13 3 -3 4 -12 1 -19z m-257 -18 c6 -11 8 -20
6 -20 -3 0 -10 9 -16 20 -6 11 -8 20 -6 20 3 0 10 -9 16 -20z m139 -44 c14
-27 27 -73 29 -103 3 -29 9 -56 14 -59 6 -4 7 2 3 16 -5 15 -4 20 4 16 13 -9
14 -26 1 -46 -8 -13 -11 -12 -24 5 -8 11 -12 23 -10 27 3 5 1 8 -4 8 -5 0 -14
10 -20 23 -7 14 -11 17 -11 6 -1 -8 6 -24 14 -35 20 -27 18 -36 -6 -29 -20 7
-20 6 -4 -19 14 -21 15 -26 3 -26 -14 0 -61 55 -56 64 2 2 -8 16 -21 30 -14
14 -21 26 -17 26 4 0 1 10 -6 23 -16 29 -18 41 -8 58 7 10 11 10 23 0 13 -10
15 -9 9 11 -5 21 -4 22 11 9 15 -12 17 -12 11 3 -7 18 13 48 30 43 6 -1 22
-25 35 -51z m-665 6 c21 -19 56 -85 56 -104 0 -9 -3 -9 -10 2 -8 12 -10 12
-11 -5 l0 -20 -9 20 -9 20 -1 -20 c-1 -14 -7 -8 -20 20 -23 49 -25 42 -5 -15
21 -59 19 -60 -15 -8 -17 25 -51 64 -75 87 -25 23 -45 43 -45 45 0 1 14 3 31
4 17 0 33 3 36 6 7 7 55 -13 77 -32z m-160 2 c13 -5 10 -13 -15 -44 -21 -26
-36 -37 -47 -33 -12 5 -14 2 -8 -12 4 -11 4 -16 0 -13 -10 11 -36 -20 -28 -33
5 -9 0 -10 -15 -6 -18 4 -20 3 -10 -9 9 -11 9 -14 0 -14 -7 0 -9 -5 -5 -11 4
-7 1 -10 -7 -7 -21 8 -13 76 13 115 13 18 41 42 63 53 46 23 39 22 59 14z
m240 -25 c31 -11 58 -25 62 -30 3 -6 -11 -2 -33 7 -21 9 -48 19 -61 21 -12 3
-25 9 -28 14 -7 13 -2 12 60 -12z m293 15 c-3 -3 -12 -4 -19 -1 -8 3 -5 6 6 6
11 1 17 -2 13 -5z m-469 -30 c2 -2 -13 -12 -35 -22 -42 -22 -76 -56 -117 -117
-21 -30 -26 -33 -21 -15 15 50 90 131 135 145 12 4 19 9 17 12 -3 2 -15 0 -26
-7 -25 -13 -28 -2 -4 16 14 9 22 10 33 1 8 -6 17 -12 18 -13z m497 -53 c3 -5
1 -12 -3 -15 -5 -3 -29 16 -53 41 l-44 46 47 -32 c26 -17 50 -35 53 -40z m329
22 c13 -21 27 -49 30 -63 l7 -25 -15 25 c-10 16 -16 19 -16 10 0 -12 -4 -10
-15 4 -8 11 -13 28 -10 37 3 10 1 20 -5 24 -10 6 -14 25 -5 25 3 0 16 -17 29
-37z m-621 -5 c9 -11 17 -25 17 -30 0 -6 -9 0 -20 13 l-20 24 10 -29 c9 -25 9
-27 -4 -16 -9 6 -22 25 -30 42 -15 28 -14 29 7 23 12 -4 30 -16 40 -27z m-187
4 c14 -9 34 -47 34 -64 0 -22 -87 -60 -109 -48 -10 5 -22 6 -26 2 -5 -4 -5 1
-2 11 4 11 1 17 -8 17 -30 0 -6 44 38 70 34 21 55 24 73 12z m377 -7 c-3 -9
-8 -14 -10 -11 -3 3 -2 9 2 15 9 16 15 13 8 -4z m13 -31 c-4 -9 -9 -15 -11
-12 -3 3 -3 13 1 22 4 9 9 15 11 12 3 -3 3 -13 -1 -22z m-838 -78 c2 -16 0
-32 -5 -37 -5 -5 -9 -1 -9 9 0 9 -4 28 -8 41 -6 18 -5 22 5 19 8 -3 15 -17 17
-32z m467 12 c-11 -6 -42 -24 -68 -40 -27 -16 -46 -24 -42 -18 8 13 106 70
120 70 6 -1 1 -6 -10 -12z m629 -14 c3 -8 2 -12 -4 -9 -6 3 -10 10 -10 16 0
14 7 11 14 -7z m-825 -128 c20 -21 27 -33 16 -27 -36 20 -65 49 -75 76 -15 40
-11 54 7 20 8 -16 32 -47 52 -69z m444 88 c-7 -3 -9 -12 -6 -20 3 -9 -1 -14
-11 -14 -21 0 -91 -35 -133 -66 -42 -32 -52 -30 -22 3 16 19 18 23 4 12 -11
-9 -25 -19 -31 -22 -16 -9 -9 40 8 60 24 29 91 53 148 52 30 0 50 -3 43 -5z
m123 -76 c8 -16 13 -28 11 -28 -6 0 -57 79 -57 87 1 10 28 -25 46 -59z m-103
16 c-5 -14 -3 -15 15 -5 20 10 22 9 22 -11 -1 -25 -28 -91 -29 -70 -1 7 -5 10
-11 7 -5 -3 -10 2 -10 12 -1 14 -4 13 -15 -7 -9 -15 -14 -19 -15 -10 0 13 -2
13 -9 1 -5 -8 -16 -11 -25 -8 -8 3 -18 2 -22 -4 -4 -6 -11 -6 -20 2 -11 9 -14
8 -14 -2 0 -24 -20 13 -20 37 0 15 13 27 43 42 70 34 120 42 110 16z m-468
-89 c9 -38 2 -31 -19 20 -13 31 -14 37 -3 25 8 -8 18 -28 22 -45z m314 -10 c0
-5 -4 -3 -9 5 -5 8 -9 22 -9 30 0 16 17 -16 18 -35z m-153 -112 c82 -25 102
-27 254 -27 194 1 251 13 431 93 131 58 119 40 -17 -25 -142 -68 -240 -89
-419 -88 -122 0 -165 5 -230 22 -88 24 -263 106 -310 146 -19 15 14 2 86 -34
63 -33 156 -71 205 -87z m31 101 c51 -12 102 -15 202 -12 95 3 127 2 110 -5
-13 -6 -80 -10 -149 -10 -100 0 -137 4 -185 20 -74 26 -67 28 22 7z"/>
<path d="M1650 2570 c8 -5 20 -10 25 -10 6 0 3 5 -5 10 -8 5 -19 10 -25 10 -5
0 -3 -5 5 -10z"/>
<path d="M1269 2076 c-3 -3 -24 -6 -48 -7 l-43 -3 22 -18 c12 -10 30 -18 39
-18 16 1 61 33 61 44 0 7 -25 8 -31 2z"/>
<path d="M1365 2060 c10 -11 22 -17 27 -14 12 8 -11 34 -30 34 -13 0 -12 -3 3
-20z"/>
<path d="M1125 2030 c-16 -18 -14 -24 6 -22 4 1 18 -9 33 -23 65 -60 96 -68
139 -35 26 21 73 104 53 96 -91 -39 -214 -47 -208 -13 4 22 -1 22 -23 -3z
m184 -42 c-7 -13 -17 -26 -23 -30 -20 -14 -55 -8 -65 9 -8 15 -3 20 32 29 66
18 69 17 56 -8z"/>
<path d="M1820 2176 c0 -2 7 -7 16 -10 8 -3 12 -2 9 4 -6 10 -25 14 -25 6z"/>
<path d="M575 1005 c-14 -13 -25 -32 -25 -41 0 -16 2 -16 15 2 15 18 16 17 11
-16 -3 -19 -3 -28 0 -20 4 8 15 34 25 58 20 47 10 54 -26 17z"/>
<path d="M2260 1660 c-8 -5 -10 -10 -5 -10 6 0 17 5 25 10 8 5 11 10 5 10 -5
0 -17 -5 -25 -10z"/>
<path d="M2160 1635 c0 -8 4 -15 10 -15 5 0 7 7 4 15 -4 8 -8 15 -10 15 -2 0
-4 -7 -4 -15z"/>
<path d="M2130 1620 c0 -5 5 -10 11 -10 5 0 7 5 4 10 -3 6 -8 10 -11 10 -2 0
-4 -4 -4 -10z"/>
<path d="M1717 1633 c8 -50 13 -55 13 -10 0 20 -4 38 -9 42 -6 3 -7 -10 -4
-32z"/>
<path d="M1767 1635 c10 -13 22 -25 27 -25 5 0 -1 11 -14 25 -30 32 -36 32
-13 0z"/>
<path d="M1637 1600 c-3 -11 -1 -20 4 -20 5 0 9 9 9 20 0 11 -2 20 -4 20 -2 0
-6 -9 -9 -20z"/>
<path d="M1806 1577 c3 -10 9 -15 12 -12 3 3 0 11 -7 18 -10 9 -11 8 -5 -6z"/>
<path d="M1781 1514 c0 -11 3 -14 6 -6 3 7 2 16 -1 19 -3 4 -6 -2 -5 -13z"/>
<path d="M1593 1483 c0 -49 7 -54 23 -19 9 19 9 23 -2 19 -7 -3 -14 5 -17 19
-2 13 -4 4 -4 -19z"/>
<path d="M1530 1478 c0 -9 5 -20 10 -23 13 -8 13 5 0 25 -8 13 -10 13 -10 -2z"/>
<path d="M1787 1474 c-4 -4 -7 -14 -7 -23 0 -11 3 -12 11 -4 6 6 10 16 7 23
-2 6 -7 8 -11 4z"/>
<path d="M1580 1419 c0 -5 5 -7 10 -4 6 3 10 8 10 11 0 2 -4 4 -10 4 -5 0 -10
-5 -10 -11z"/>
<path d="M1800 1354 c0 -19 4 -33 8 -30 8 5 4 66 -4 66 -2 0 -4 -16 -4 -36z"/>
<path d="M1844 1335 c1 -31 3 -33 14 -18 15 21 15 28 -1 42 -11 8 -13 4 -13
-24z"/>
<path d="M349 1363 c-13 -16 -12 -17 4 -4 9 7 17 15 17 17 0 8 -8 3 -21 -13z"/>
<path d="M256 1305 c-19 -15 -19 -15 2 -15 13 0 22 6 22 15 0 18 0 18 -24 0z"/>
<path d="M2075 1350 c3 -5 11 -10 16 -10 6 0 7 5 4 10 -3 6 -11 10 -16 10 -6
0 -7 -4 -4 -10z"/>
<path d="M1720 1028 c0 -9 5 -20 10 -23 13 -8 13 5 0 25 -8 13 -10 13 -10 -2z"/>
<path d="M1717 974 c3 -8 11 -14 19 -14 21 0 17 17 -5 23 -14 3 -18 1 -14 -9z"/>
<path d="M1450 966 c0 -2 8 -10 18 -17 15 -13 16 -12 3 4 -13 16 -21 21 -21
13z"/>
<path d="M1085 2660 c-3 -6 1 -7 9 -4 18 7 21 14 7 14 -6 0 -13 -4 -16 -10z"/>
<path d="M882 2608 c-78 -14 -56 -22 26 -9 39 6 77 8 85 5 8 -3 18 -1 22 5 8
13 -57 13 -133 -1z"/>
<path d="M785 2574 c-11 -8 -25 -12 -33 -9 -16 6 15 -40 76 -112 44 -53 59
-63 59 -40 0 6 3 21 7 33 6 18 3 20 -24 16 -43 -6 -37 5 10 18 22 6 40 14 40
18 0 8 -89 7 -97 -2 -4 -3 -12 -1 -19 5 -10 8 -11 17 -3 33 10 20 9 20 -5 2
-14 -18 -16 -18 -22 -2 -4 9 -5 18 -3 20 2 1 15 10 29 19 13 9 20 17 15 17 -6
0 -19 -7 -30 -16z"/>
<path d="M2009 2393 c-13 -35 0 -46 31 -23 20 15 22 20 11 34 -19 23 -30 20
-42 -11z m35 -4 c-3 -5 -10 -7 -15 -3 -5 3 -7 10 -3 15 3 5 10 7 15 3 5 -3 7
-10 3 -15z"/>
<path d="M1985 2350 c-4 -6 -3 -16 3 -22 6 -6 12 -6 17 2 4 6 3 16 -3 22 -6 6
-12 6 -17 -2z"/>
<path d="M844 2238 c-4 -7 -14 -23 -22 -35 -8 -13 -10 -23 -6 -23 11 0 47 61
40 67 -2 2 -7 -2 -12 -9z"/>
<path d="M814 2156 c-10 -8 -16 -17 -13 -20 3 -3 14 3 24 14 21 23 17 26 -11
6z"/>
<path d="M456 744 c-4 -12 -13 -14 -32 -10 -17 5 -23 3 -19 -4 10 -16 55 -12
62 5 3 9 3 18 0 21 -2 3 -7 -3 -11 -12z"/>
<path d="M587 543 c-4 -3 -7 -11 -7 -17 0 -6 5 -5 12 2 7 7 15 12 20 12 4 0
-15 -21 -43 -47 -45 -42 -119 -167 -106 -179 2 -3 29 29 58 70 40 57 60 76 77
76 35 0 112 -21 112 -31 0 -13 -147 -171 -178 -191 -35 -23 -79 -23 -126 2
-36 18 -40 18 -62 2 -31 -23 -30 -35 7 -71 73 -73 249 -82 382 -19 87 42 132
78 157 129 49 95 5 179 -123 234 -18 8 -25 14 -17 14 8 1 39 -12 68 -28 28
-16 49 -25 46 -19 -4 5 -34 23 -68 39 -49 23 -74 29 -132 29 -39 0 -74 -3 -77
-7z m136 -10 c-7 -2 -19 -2 -25 0 -7 3 -2 5 12 5 14 0 19 -2 13 -5z m45 -129
c35 -24 82 -94 82 -122 0 -34 -57 -88 -111 -102 -42 -12 -203 -9 -216 3 -3 3
24 33 59 65 35 33 81 85 103 115 22 31 45 56 50 57 6 0 21 -7 33 -16z"/>
<path d="M543 494 l-28 -26 33 22 c29 20 39 30 28 30 -3 0 -18 -12 -33 -26z"/>
<path d="M1313 408 c-4 -7 -13 -24 -20 -38 l-11 -25 -1 33 c-1 30 -3 32 -36
32 l-35 0 0 -78 c0 -88 10 -108 57 -114 26 -4 33 0 42 19 14 31 14 30 -9 36
-24 6 -26 34 -4 65 13 18 19 21 30 11 8 -6 16 -10 18 -8 9 11 24 68 19 73 -11
10 -42 6 -50 -6z"/>
<path d="M1421 394 c-32 -27 -33 -30 -29 -87 4 -47 9 -64 27 -78 32 -26 75
-24 108 6 17 16 22 25 13 24 -64 -6 -102 43 -70 91 9 13 12 13 23 -1 9 -12 19
-14 45 -7 17 5 32 12 32 17 0 22 -39 51 -76 57 -34 5 -45 2 -73 -22z"/>
<path d="M1882 391 c-23 -20 -32 -38 -32 -60 0 -37 22 -51 82 -51 24 0 50 -5
58 -10 28 -18 -10 -32 -72 -26 -46 5 -58 3 -58 -8 0 -18 67 -30 120 -21 47 8
82 46 78 84 -3 23 -9 27 -53 32 -60 7 -82 16 -89 35 -5 12 1 14 27 10 74 -12
79 -12 88 12 8 21 6 22 -41 22 -26 0 -55 2 -63 5 -7 3 -28 -7 -45 -24z"/>
<path d="M986 370 c-46 -51 -49 -98 -9 -129 53 -42 106 -39 154 9 36 35 40 97
9 125 -11 10 -17 22 -14 26 3 5 -19 9 -49 9 -51 0 -57 -3 -91 -40z m81 -5 c35
-24 43 -115 10 -115 -26 0 -57 44 -57 80 0 53 11 60 47 35z"/>
<path d="M1637 380 c-34 -40 -42 -71 -31 -123 13 -59 41 -62 85 -8 18 23 36
41 39 41 4 0 5 -20 3 -44 l-5 -45 36 11 36 11 0 72 c0 86 -11 101 -86 110 -48
7 -52 6 -77 -25z m78 -34 c18 -13 18 -15 -8 -50 -16 -20 -30 -36 -33 -36 -2 0
-4 23 -4 50 0 53 10 62 45 36z"/>
<path d="M1246 124 c-4 -20 -5 -38 -3 -40 3 -3 8 11 11 32 4 20 5 38 3 40 -3
3 -8 -11 -11 -32z"/>
<path d="M1286 152 c-2 -4 -7 -25 -10 -47 -7 -45 -2 -38 13 18 9 35 8 46 -3
29z"/>
<path d="M1911 144 c0 -11 3 -14 6 -6 3 7 2 16 -1 19 -3 4 -6 -2 -5 -13z"/>
<path d="M2106 128 c-31 -30 -30 -60 2 -51 14 3 21 16 25 41 2 21 4 37 3 37
-1 0 -14 -12 -30 -27z m4 -33 c-7 -9 -15 -13 -18 -10 -3 2 1 11 8 20 7 9 15
13 18 10 3 -2 -1 -11 -8 -20z"/>
<path d="M984 133 c0 -10 -4 -28 -8 -41 -7 -22 -7 -22 26 -9 25 10 33 20 33
38 0 18 -6 25 -25 27 -19 2 -26 -2 -26 -15z m46 -7 c0 -16 -28 -42 -36 -33 -3
3 -3 15 1 26 7 23 35 29 35 7z"/>
<path d="M1125 119 c-8 -37 6 -57 25 -34 11 13 10 14 -4 9 -13 -5 -15 -1 -10
25 8 40 -2 40 -11 0z"/>
<path d="M1189 113 c-13 -16 -12 -17 4 -4 10 8 17 9 17 3 0 -6 -8 -16 -17 -22
-16 -10 -16 -10 2 -8 12 2 21 12 23 26 4 26 -10 29 -29 5z"/>
<path d="M1375 120 c-3 -5 -3 -15 1 -21 3 -6 0 -16 -7 -21 -12 -8 -11 -9 1 -5
8 2 14 13 13 23 -1 10 4 22 10 26 9 6 9 8 0 8 -6 0 -15 -4 -18 -10z"/>
<path d="M1472 87 c-9 -35 -9 -39 2 -24 7 9 18 17 23 17 13 0 38 29 31 36 -3
2 -14 6 -26 9 -16 3 -22 -4 -30 -38z m43 12 c-4 -5 -13 -9 -22 -9 -13 0 -13 3
-3 15 13 15 35 11 25 -6z"/>
<path d="M1606 104 c-4 -14 -5 -28 -3 -31 3 -2 8 8 11 23 4 14 5 28 3 31 -3 2
-8 -8 -11 -23z"/>
<path d="M1665 120 c-3 -5 -3 -15 1 -21 3 -6 0 -16 -7 -21 -12 -8 -11 -9 1 -5
8 2 14 13 13 23 -1 10 4 22 10 26 9 6 9 8 0 8 -6 0 -15 -4 -18 -10z"/>
<path d="M1716 114 c-19 -18 -20 -30 -6 -39 15 -9 40 14 40 36 0 23 -13 24
-34 3z m15 -27 c-16 -16 -26 0 -10 19 9 11 15 12 17 4 2 -6 -1 -17 -7 -23z"/>
<path d="M1776 114 c-3 -9 -6 -21 -5 -27 0 -7 4 -2 9 11 13 32 32 28 25 -5 -4
-23 -4 -25 4 -8 5 11 10 26 10 33 1 18 -36 15 -43 -4z"/>
<path d="M1847 112 c-22 -24 -21 -32 2 -32 10 0 22 7 25 16 14 37 0 46 -27 16z
m18 -11 c-3 -6 -11 -11 -17 -11 -6 0 -6 6 2 15 14 17 26 13 15 -4z"/>
<path d="M1976 106 c-20 -32 -20 -36 2 -35 11 0 12 2 4 6 -10 4 -9 9 4 24 9
11 15 21 12 24 -3 3 -13 -6 -22 -19z"/>
<path d="M2032 118 c-18 -18 -14 -38 8 -38 11 0 20 7 20 15 0 8 0 18 1 22 1
13 -16 14 -29 1z m22 -13 c-6 -16 -24 -21 -24 -7 0 11 11 22 21 22 5 0 6 -7 3
-15z"/>
<path d="M2162 118 c-14 -14 -16 -48 -3 -48 15 0 42 31 38 43 -5 16 -21 19
-35 5z m28 -7 c0 -5 -7 -14 -15 -21 -12 -10 -15 -10 -15 2 0 8 3 18 7 21 9 10
23 9 23 -2z"/>
<path d="M2225 120 c-3 -5 -3 -15 1 -21 3 -6 0 -16 -7 -21 -12 -8 -11 -9 1 -5
8 2 14 13 13 23 -1 10 4 22 10 26 9 6 9 8 0 8 -6 0 -15 -4 -18 -10z"/>
<path d="M1060 105 c-13 -16 -6 -35 13 -34 9 0 9 2 0 5 -7 3 -9 12 -6 20 3 7
9 12 13 9 5 -3 11 -1 15 5 10 16 -21 12 -35 -5z"/>
<path d="M1306 103 c-9 -23 10 -41 27 -24 10 10 9 11 -6 5 -13 -5 -16 -2 -11
10 3 9 10 13 15 10 5 -3 9 0 9 5 0 17 -27 13 -34 -6z"/>
<path d="M1543 104 c-8 -22 13 -42 30 -25 10 10 8 11 -7 5 -14 -5 -17 -3 -14
7 3 8 11 13 17 12 6 -2 11 2 11 7 0 16 -30 11 -37 -6z"/>
<path d="M1897 100 c-3 -11 -1 -20 4 -20 5 0 9 9 9 20 0 11 -2 20 -4 20 -2 0
-6 -9 -9 -20z"/>
<path d="M1932 100 c0 -14 2 -19 5 -12 2 6 2 18 0 25 -3 6 -5 1 -5 -13z"/>
</g>
</svg>
